<?xml version="1.0" encoding="UTF-8"?>
<svg xmlns="http://www.w3.org/2000/svg" xmlns:xlink="http://www.w3.org/1999/xlink" width="638.193pt" height="340.556pt" viewBox="0 0 638.193 340.556" version="1.1">
<g id="surface1">
<path style=" stroke:none;fill-rule:nonzero;fill:rgb(0%,0%,0%);fill-opacity:1;" d="M 82.574219 240.175781 L 111.660156 160.261719 L 103.671875 157.355469 L 74.585938 237.265625 Z M 82.574219 240.175781 "/>
<path style=" stroke:none;fill-rule:nonzero;fill:rgb(0%,0%,0%);fill-opacity:1;" d="M 87.902344 242.113281 L 116.988281 162.203125 L 124.980469 165.109375 L 95.894531 245.023438 Z M 87.902344 242.113281 "/>
<path style=" stroke:none;fill-rule:nonzero;fill:rgb(25.097656%,38.822937%,84.70459%);fill-opacity:1;" d="M 109.683594 298.308594 C 117.714844 276.238281 106.335938 251.839844 84.269531 243.808594 C 62.203125 235.777344 37.800781 247.152344 29.769531 269.222656 C 21.738281 291.289062 33.117188 315.6875 55.183594 323.71875 C 77.25 331.753906 101.652344 320.375 109.683594 298.308594 Z M 109.683594 298.308594 "/>
<path style=" stroke:none;fill-rule:nonzero;fill:rgb(0%,0%,0%);fill-opacity:1;" d="M 106.671875 151.53125 L 82.714844 100.148438 L 75.007812 103.742188 L 98.964844 155.125 Z M 106.671875 151.53125 "/>
<path style=" stroke:none;fill-rule:nonzero;fill:rgb(0%,0%,0%);fill-opacity:1;" d="M 111.8125 149.132812 L 87.851562 97.753906 L 95.558594 94.160156 L 119.519531 145.539062 Z M 111.8125 149.132812 "/>
<path style=" stroke:none;fill-rule:nonzero;fill:rgb(21.961975%,59.606934%,14.901733%);fill-opacity:1;" d="M 104.648438 39.875 C 94.726562 18.59375 69.425781 9.386719 48.144531 19.308594 C 26.859375 29.234375 17.652344 54.53125 27.578125 75.816406 C 37.503906 97.097656 62.800781 106.304688 84.085938 96.382812 C 105.367188 86.457031 114.574219 61.160156 104.648438 39.875 Z M 104.648438 39.875 "/>
<path style=" stroke:none;fill-rule:nonzero;fill:rgb(0%,0%,0%);fill-opacity:1;" d="M 124.027344 153.578125 L 175.40625 129.621094 L 171.8125 121.914062 L 120.433594 145.871094 Z M 124.027344 153.578125 "/>
<path style=" stroke:none;fill-rule:nonzero;fill:rgb(0%,0%,0%);fill-opacity:1;" d="M 126.421875 158.71875 L 177.804688 134.757812 L 181.398438 142.464844 L 130.015625 166.425781 Z M 126.421875 158.71875 "/>
<path style=" stroke:none;fill-rule:nonzero;fill:rgb(21.961975%,59.606934%,14.901733%);fill-opacity:1;" d="M 235.679688 151.558594 C 256.964844 141.632812 266.171875 116.335938 256.246094 95.050781 C 246.324219 73.769531 221.023438 64.558594 199.742188 74.484375 C 178.457031 84.410156 169.25 109.707031 179.175781 130.992188 C 189.101562 152.273438 214.398438 161.480469 235.679688 151.558594 Z M 235.679688 151.558594 "/>
<path style=" stroke:none;fill-rule:nonzero;fill:rgb(0%,0%,0%);fill-opacity:1;" d="M 537.371094 243.597656 L 463.722656 201.078125 L 459.472656 208.441406 L 533.117188 250.964844 Z M 537.371094 243.597656 "/>
<path style=" stroke:none;fill-rule:nonzero;fill:rgb(0%,0%,0%);fill-opacity:1;" d="M 540.207031 238.6875 L 466.558594 196.167969 L 470.808594 188.804688 L 544.457031 231.324219 Z M 540.207031 238.6875 "/>
<path style=" stroke:none;fill-rule:nonzero;fill:rgb(58.428955%,34.510803%,69.802856%);fill-opacity:1;" d="M 599.328125 226.996094 C 578.988281 215.257812 552.984375 222.222656 541.242188 242.5625 C 529.5 262.898438 536.46875 288.902344 556.808594 300.644531 C 577.144531 312.386719 603.148438 305.417969 614.890625 285.082031 C 626.632812 264.746094 619.664062 238.738281 599.328125 226.996094 Z M 599.328125 226.996094 "/>
<path style=" stroke:none;fill-rule:nonzero;fill:rgb(0%,0%,0%);fill-opacity:1;" d="M 454.257812 204.476562 L 399.496094 219.148438 L 401.699219 227.363281 L 456.457031 212.6875 Z M 454.257812 204.476562 "/>
<path style=" stroke:none;fill-rule:nonzero;fill:rgb(0%,0%,0%);fill-opacity:1;" d="M 452.789062 199 L 398.027344 213.671875 L 395.828125 205.457031 L 450.589844 190.785156 Z M 452.789062 199 "/>
<path style=" stroke:none;fill-rule:nonzero;fill:rgb(79.606628%,23.527527%,19.999695%);fill-opacity:1;" d="M 343.949219 187.078125 C 321.265625 193.15625 307.804688 216.472656 313.882812 239.152344 C 319.960938 261.835938 343.277344 275.296875 365.957031 269.21875 C 388.640625 263.140625 402.101562 239.828125 396.023438 217.144531 C 389.945312 194.460938 366.632812 181 343.949219 187.078125 Z M 343.949219 187.078125 "/>
<path style=" stroke:none;fill-rule:nonzero;fill:rgb(0%,0%,0%);fill-opacity:1;" d="M 459.289062 187.742188 L 444.617188 132.980469 L 436.402344 135.179688 L 451.074219 189.941406 Z M 459.289062 187.742188 "/>
<path style=" stroke:none;fill-rule:nonzero;fill:rgb(0%,0%,0%);fill-opacity:1;" d="M 464.765625 186.273438 L 450.09375 131.511719 L 458.304688 129.3125 L 472.980469 184.074219 Z M 464.765625 186.273438 "/>
<path style=" stroke:none;fill-rule:nonzero;fill:rgb(79.606628%,23.527527%,19.999695%);fill-opacity:1;" d="M 476.6875 77.433594 C 470.609375 54.75 447.292969 41.289062 424.609375 47.367188 C 401.925781 53.445312 388.46875 76.757812 394.546875 99.441406 C 400.621094 122.125 423.9375 135.585938 446.621094 129.507812 C 469.304688 123.429688 482.765625 100.113281 476.6875 77.433594 Z M 476.6875 77.433594 "/>
</g>
</svg>
